<?xml version="1.0" standalone="no"?>
<!DOCTYPE svg PUBLIC "-//W3C//DTD SVG 20010904//EN"
 "http://www.w3.org/TR/2001/REC-SVG-20010904/DTD/svg10.dtd">
<svg version="1.0" xmlns="http://www.w3.org/2000/svg"
 width="260.000000pt" height="260.000000pt" viewBox="0 0 260.000000 260.000000"
 preserveAspectRatio="xMidYMid meet">
<metadata>
Created by potrace 1.11, written by Peter Selinger 2001-2013
</metadata>
<g transform="translate(0.000000,260.000000) scale(0.100000,-0.100000)"
fill="#000000" stroke="none">
<path d="M984 2025 c-34 -7 -94 -27 -133 -43 -97 -41 -288 -169 -376 -254 -40
-37 -79 -68 -88 -68 -23 0 -65 55 -78 102 -15 57 -3 106 35 144 52 52 138 65
250 38 22 -5 28 -4 24 7 -8 27 -81 53 -156 57 -115 6 -197 -33 -233 -112 -35
-77 -18 -150 50 -217 25 -25 54 -50 63 -55 16 -9 13 -18 -27 -99 -25 -50 -55
-129 -67 -177 -20 -77 -21 -93 -11 -143 38 -182 207 -210 406 -69 26 19 47 31
47 27 0 -26 -164 -276 -216 -330 -101 -103 -238 -152 -302 -107 -27 19 -27 27
-1 64 22 29 21 69 -3 97 -18 23 -72 15 -99 -13 -32 -34 -34 -111 -4 -144 71
-81 226 -79 403 5 128 60 233 182 369 428 l60 107 6 -61 c7 -80 46 -144 107
-177 37 -20 55 -23 105 -19 159 12 288 131 534 492 90 132 160 231 156 220
-19 -46 -86 -257 -111 -350 -37 -134 -68 -212 -104 -257 -35 -43 -36 -48 -11
-48 29 0 141 92 198 162 58 72 148 197 251 348 39 58 101 134 138 170 l66 65
-65 -85 c-138 -182 -221 -335 -258 -477 -23 -90 -19 -134 16 -169 48 -48 124
-23 211 68 111 116 171 199 159 219 -10 14 -30 -5 -75 -71 -54 -80 -115 -132
-148 -128 -23 3 -27 8 -30 41 -5 60 24 141 108 304 90 174 131 238 234 362 53
63 87 94 120 109 25 12 50 22 56 22 5 0 10 7 10 16 0 27 -82 12 -164 -30 -150
-76 -276 -205 -471 -484 -66 -94 -121 -170 -122 -168 -2 1 11 43 28 92 16 49
48 161 70 248 45 180 85 276 123 301 27 18 35 45 14 45 -28 0 -120 -75 -176
-143 -32 -40 -119 -157 -192 -262 -238 -339 -306 -413 -430 -467 -106 -46
-205 -29 -243 43 -28 53 -19 190 18 265 30 62 86 124 134 149 77 39 174 24
200 -31 26 -58 3 -152 -48 -198 -20 -18 -20 -36 0 -36 19 0 93 77 110 115 25
54 25 141 -1 182 -32 53 -61 66 -134 61 -86 -7 -151 -45 -236 -135 -64 -69
-71 -73 -112 -73 l-43 0 -64 -96 c-115 -174 -240 -284 -324 -284 -42 0 -92 27
-106 56 -34 76 -16 200 47 319 34 64 39 70 67 68 222 -15 350 7 495 83 149 79
240 179 240 264 0 112 -95 152 -266 115z m129 -65 c57 -45 37 -120 -60 -211
-111 -106 -237 -153 -410 -154 -61 0 -115 3 -119 7 -11 12 97 147 180 226 50
47 100 83 156 111 74 37 90 41 155 41 57 0 78 -4 98 -20z"/>
</g>
</svg>
